REM DIRINDEX 1\2,1\3,1\4,1\5
REM DIRNAME cjc093,folder01,folder02,folder03,folder04
TITLE ""
FILE "Round-04-076-077.mp3" MP3
  TRACK 01 AUDIO
    TITLE "0:"
    INDEX 01 00:00:00
  TRACK 02 AUDIO
    TITLE "2:cjc093_0874"
    INDEX 01 00:00:01
  TRACK 03 AUDIO
    TITLE "0:"
    INDEX 01 00:01:13
  TRACK 04 AUDIO
    TITLE "3:cjc093_0875"
    INDEX 01 00:01:40
  TRACK 05 AUDIO
    TITLE "0:"
    INDEX 01 00:02:40
  TRACK 06 AUDIO
    TITLE "4:cjc093_0876"
    INDEX 01 00:03:35
  TRACK 07 AUDIO
    TITLE "0:"
    INDEX 01 00:06:24
  TRACK 08 AUDIO
    TITLE "2:cjc093_0877"
    INDEX 01 00:07:37
  TRACK 09 AUDIO
    TITLE "0:"
    INDEX 01 00:08:46
  TRACK 10 AUDIO
    TITLE "3:cjc093_0878"
    INDEX 01 00:09:00
  TRACK 11 AUDIO
    TITLE "0:"
    INDEX 01 00:10:23
  TRACK 12 AUDIO
    TITLE "4:cjc093_0879"
    INDEX 01 00:10:51
  TRACK 13 AUDIO
    TITLE "0:"
    INDEX 01 00:14:21
  TRACK 14 AUDIO
    TITLE "2:cjc093_0880"
    INDEX 01 00:15:32
  TRACK 15 AUDIO
    TITLE "0:"
    INDEX 01 00:16:53
  TRACK 16 AUDIO
    TITLE "3:cjc093_0881"
    INDEX 01 00:17:12
  TRACK 17 AUDIO
    TITLE "0:"
    INDEX 01 00:18:09
  TRACK 18 AUDIO
    TITLE "4:cjc093_0882"
    INDEX 01 00:19:03
  TRACK 19 AUDIO
    TITLE "0:"
    INDEX 01 00:22:60
  TRACK 20 AUDIO
    TITLE "2:cjc093_0883"
    INDEX 01 00:24:00
  TRACK 21 AUDIO
    TITLE "0:"
    INDEX 01 00:25:13
  TRACK 22 AUDIO
    TITLE "3:cjc093_0884"
    INDEX 01 00:25:56
  TRACK 23 AUDIO
    TITLE "0:"
    INDEX 01 00:27:43
  TRACK 24 AUDIO
    TITLE "4:cjc093_0885"
    INDEX 01 00:28:19
  TRACK 25 AUDIO
    TITLE "0:"
    INDEX 01 00:32:11
  TRACK 26 AUDIO
    TITLE "3:cjc093_0886"
    INDEX 01 00:33:21
  TRACK 27 AUDIO
    TITLE "0:"
    INDEX 01 00:34:69
  TRACK 28 AUDIO
    TITLE "4:cjc093_0887"
    INDEX 01 00:35:43
  TRACK 29 AUDIO
    TITLE "0:"
    INDEX 01 00:38:61
  TRACK 30 AUDIO
    TITLE "2:cjc093_0888"
    INDEX 01 00:39:74
  TRACK 31 AUDIO
    TITLE "0:"
    INDEX 01 00:41:16
  TRACK 32 AUDIO
    TITLE "3:cjc093_0889"
    INDEX 01 00:41:73
  TRACK 33 AUDIO
    TITLE "0:"
    INDEX 01 00:44:24
  TRACK 34 AUDIO
    TITLE "4:cjc093_0890"
    INDEX 01 00:44:58
  TRACK 35 AUDIO
    TITLE "0:"
    INDEX 01 00:48:02
  TRACK 36 AUDIO
    TITLE "3:cjc093_0891"
    INDEX 01 00:49:10
  TRACK 37 AUDIO
    TITLE "0:"
    INDEX 01 00:50:50
  TRACK 38 AUDIO
    TITLE "4:cjc093_0892"
    INDEX 01 00:51:01
  TRACK 39 AUDIO
    TITLE "0:"
    INDEX 01 00:53:60
  TRACK 40 AUDIO
    TITLE "2:cjc093_0893"
    INDEX 01 00:54:64
  TRACK 41 AUDIO
    TITLE "0:"
    INDEX 01 00:56:02
  TRACK 42 AUDIO
    TITLE "3:cjc093_0894"
    INDEX 01 00:56:47
  TRACK 43 AUDIO
    TITLE "0:"
    INDEX 01 00:58:36
  TRACK 44 AUDIO
    TITLE "4:cjc093_0895"
    INDEX 01 00:58:69
  TRACK 45 AUDIO
    TITLE "0:"
    INDEX 01 01:01:36
  TRACK 46 AUDIO
    TITLE "3:cjc093_0896"
    INDEX 01 01:02:65
  TRACK 47 AUDIO
    TITLE "0:"
    INDEX 01 01:04:60
  TRACK 48 AUDIO
    TITLE "4:cjc093_0897"
    INDEX 01 01:05:48
  TRACK 49 AUDIO
    TITLE "0:"
    INDEX 01 01:09:18
  TRACK 50 AUDIO
    TITLE "2:cjc093_0898"
    INDEX 01 01:10:49
  TRACK 51 AUDIO
    TITLE "0:"
    INDEX 01 01:11:60
  TRACK 52 AUDIO
    TITLE "3:cjc093_0899"
    INDEX 01 01:12:24
  TRACK 53 AUDIO
    TITLE "0:"
    INDEX 01 01:14:37
  TRACK 54 AUDIO
    TITLE "4:cjc093_0900"
    INDEX 01 01:15:23
  TRACK 55 AUDIO
    TITLE "0:"
    INDEX 01 01:19:05
  TRACK 56 AUDIO
    TITLE "3:cjc093_0901"
    INDEX 01 01:20:18
  TRACK 57 AUDIO
    TITLE "0:"
    INDEX 01 01:21:39
  TRACK 58 AUDIO
    TITLE "4:cjc093_0902"
    INDEX 01 01:22:25
  TRACK 59 AUDIO
    TITLE "0:"
    INDEX 01 01:24:63
